<?xml version="1.0" encoding="utf-8" standalone="no"?>
<!DOCTYPE svg PUBLIC "-//W3C//DTD SVG 1.1//EN"
  "http://www.w3.org/Graphics/SVG/1.1/DTD/svg11.dtd">
<!-- Created with matplotlib (https://matplotlib.org/) -->
<svg height="432pt" version="1.1" viewBox="0 0 1440 432" width="1440pt" xmlns="http://www.w3.org/2000/svg" xmlns:xlink="http://www.w3.org/1999/xlink">
 <metadata>
  <rdf:RDF xmlns:cc="http://creativecommons.org/ns#" xmlns:dc="http://purl.org/dc/elements/1.1/" xmlns:rdf="http://www.w3.org/1999/02/22-rdf-syntax-ns#">
   <cc:Work>
    <dc:type rdf:resource="http://purl.org/dc/dcmitype/StillImage"/>
    <dc:date>2022-01-12T17:09:54.479573</dc:date>
    <dc:format>image/svg+xml</dc:format>
    <dc:creator>
     <cc:Agent>
      <dc:title>Matplotlib v3.3.3, https://matplotlib.org/</dc:title>
     </cc:Agent>
    </dc:creator>
   </cc:Work>
  </rdf:RDF>
 </metadata>
 <defs>
  <style type="text/css">*{stroke-linecap:butt;stroke-linejoin:round;}</style>
 </defs>
 <g id="figure_1">
  <g id="patch_1">
   <path d="M 0 432 
L 1440 432 
L 1440 0 
L 0 0 
z
" style="fill:#ffffff;"/>
  </g>
  <g id="axes_1">
   <g id="patch_2">
    <path d="M 180 345.6 
L 1296 345.6 
L 1296 51.84 
L 180 51.84 
z
" style="fill:#ffffff;"/>
   </g>
   <g id="matplotlib.axis_1">
    <g id="xtick_1">
     <g id="line2d_1">
      <defs>
       <path d="M 0 0 
L 0 3.5 
" id="m504a474b45" style="stroke:#000000;stroke-width:0.8;"/>
      </defs>
      <g>
       <use style="stroke:#000000;stroke-width:0.8;" x="230.727273" xlink:href="#m504a474b45" y="345.6"/>
      </g>
     </g>
     <g id="text_1">
      <!-- 0 -->
      <g transform="translate(224.177342 362.36169)rotate(-30)scale(0.1 -0.1)">
       <defs>
        <path d="M 31.78125 66.40625 
Q 24.171875 66.40625 20.328125 58.90625 
Q 16.5 51.421875 16.5 36.375 
Q 16.5 21.390625 20.328125 13.890625 
Q 24.171875 6.390625 31.78125 6.390625 
Q 39.453125 6.390625 43.28125 13.890625 
Q 47.125 21.390625 47.125 36.375 
Q 47.125 51.421875 43.28125 58.90625 
Q 39.453125 66.40625 31.78125 66.40625 
z
M 31.78125 74.21875 
Q 44.046875 74.21875 50.515625 64.515625 
Q 56.984375 54.828125 56.984375 36.375 
Q 56.984375 17.96875 50.515625 8.265625 
Q 44.046875 -1.421875 31.78125 -1.421875 
Q 19.53125 -1.421875 13.0625 8.265625 
Q 6.59375 17.96875 6.59375 36.375 
Q 6.59375 54.828125 13.0625 64.515625 
Q 19.53125 74.21875 31.78125 74.21875 
z
" id="DejaVuSans-48"/>
       </defs>
       <use xlink:href="#DejaVuSans-48"/>
      </g>
     </g>
    </g>
    <g id="xtick_2">
     <g id="line2d_2">
      <g>
       <use style="stroke:#000000;stroke-width:0.8;" x="446.129705" xlink:href="#m504a474b45" y="345.6"/>
      </g>
     </g>
     <g id="text_2">
      <!-- 500 -->
      <g transform="translate(428.559601 368.72419)rotate(-30)scale(0.1 -0.1)">
       <defs>
        <path d="M 10.796875 72.90625 
L 49.515625 72.90625 
L 49.515625 64.59375 
L 19.828125 64.59375 
L 19.828125 46.734375 
Q 21.96875 47.46875 24.109375 47.828125 
Q 26.265625 48.1875 28.421875 48.1875 
Q 40.625 48.1875 47.75 41.5 
Q 54.890625 34.8125 54.890625 23.390625 
Q 54.890625 11.625 47.5625 5.09375 
Q 40.234375 -1.421875 26.90625 -1.421875 
Q 22.3125 -1.421875 17.546875 -0.640625 
Q 12.796875 0.140625 7.71875 1.703125 
L 7.71875 11.625 
Q 12.109375 9.234375 16.796875 8.0625 
Q 21.484375 6.890625 26.703125 6.890625 
Q 35.15625 6.890625 40.078125 11.328125 
Q 45.015625 15.765625 45.015625 23.390625 
Q 45.015625 31 40.078125 35.4375 
Q 35.15625 39.890625 26.703125 39.890625 
Q 22.75 39.890625 18.8125 39.015625 
Q 14.890625 38.140625 10.796875 36.28125 
z
" id="DejaVuSans-53"/>
       </defs>
       <use xlink:href="#DejaVuSans-53"/>
       <use x="63.623047" xlink:href="#DejaVuSans-48"/>
       <use x="127.246094" xlink:href="#DejaVuSans-48"/>
      </g>
     </g>
    </g>
    <g id="xtick_3">
     <g id="line2d_3">
      <g>
       <use style="stroke:#000000;stroke-width:0.8;" x="661.532137" xlink:href="#m504a474b45" y="345.6"/>
      </g>
     </g>
     <g id="text_3">
      <!-- 1000 -->
      <g transform="translate(638.451946 371.90544)rotate(-30)scale(0.1 -0.1)">
       <defs>
        <path d="M 12.40625 8.296875 
L 28.515625 8.296875 
L 28.515625 63.921875 
L 10.984375 60.40625 
L 10.984375 69.390625 
L 28.421875 72.90625 
L 38.28125 72.90625 
L 38.28125 8.296875 
L 54.390625 8.296875 
L 54.390625 0 
L 12.40625 0 
z
" id="DejaVuSans-49"/>
       </defs>
       <use xlink:href="#DejaVuSans-49"/>
       <use x="63.623047" xlink:href="#DejaVuSans-48"/>
       <use x="127.246094" xlink:href="#DejaVuSans-48"/>
       <use x="190.869141" xlink:href="#DejaVuSans-48"/>
      </g>
     </g>
    </g>
    <g id="xtick_4">
     <g id="line2d_4">
      <g>
       <use style="stroke:#000000;stroke-width:0.8;" x="876.934569" xlink:href="#m504a474b45" y="345.6"/>
      </g>
     </g>
     <g id="text_4">
      <!-- 1500 -->
      <g transform="translate(853.854378 371.90544)rotate(-30)scale(0.1 -0.1)">
       <use xlink:href="#DejaVuSans-49"/>
       <use x="63.623047" xlink:href="#DejaVuSans-53"/>
       <use x="127.246094" xlink:href="#DejaVuSans-48"/>
       <use x="190.869141" xlink:href="#DejaVuSans-48"/>
      </g>
     </g>
    </g>
    <g id="xtick_5">
     <g id="line2d_5">
      <g>
       <use style="stroke:#000000;stroke-width:0.8;" x="1092.337001" xlink:href="#m504a474b45" y="345.6"/>
      </g>
     </g>
     <g id="text_5">
      <!-- 2000 -->
      <g transform="translate(1069.25681 371.90544)rotate(-30)scale(0.1 -0.1)">
       <defs>
        <path d="M 19.1875 8.296875 
L 53.609375 8.296875 
L 53.609375 0 
L 7.328125 0 
L 7.328125 8.296875 
Q 12.9375 14.109375 22.625 23.890625 
Q 32.328125 33.6875 34.8125 36.53125 
Q 39.546875 41.84375 41.421875 45.53125 
Q 43.3125 49.21875 43.3125 52.78125 
Q 43.3125 58.59375 39.234375 62.25 
Q 35.15625 65.921875 28.609375 65.921875 
Q 23.96875 65.921875 18.8125 64.3125 
Q 13.671875 62.703125 7.8125 59.421875 
L 7.8125 69.390625 
Q 13.765625 71.78125 18.9375 73 
Q 24.125 74.21875 28.421875 74.21875 
Q 39.75 74.21875 46.484375 68.546875 
Q 53.21875 62.890625 53.21875 53.421875 
Q 53.21875 48.921875 51.53125 44.890625 
Q 49.859375 40.875 45.40625 35.40625 
Q 44.1875 33.984375 37.640625 27.21875 
Q 31.109375 20.453125 19.1875 8.296875 
z
" id="DejaVuSans-50"/>
       </defs>
       <use xlink:href="#DejaVuSans-50"/>
       <use x="63.623047" xlink:href="#DejaVuSans-48"/>
       <use x="127.246094" xlink:href="#DejaVuSans-48"/>
       <use x="190.869141" xlink:href="#DejaVuSans-48"/>
      </g>
     </g>
    </g>
    <g id="text_6">
     <!-- Time Interval -->
     <g transform="translate(705.028906 385.30494)scale(0.1 -0.1)">
      <defs>
       <path d="M -0.296875 72.90625 
L 61.375 72.90625 
L 61.375 64.59375 
L 35.5 64.59375 
L 35.5 0 
L 25.59375 0 
L 25.59375 64.59375 
L -0.296875 64.59375 
z
" id="DejaVuSans-84"/>
       <path d="M 9.421875 54.6875 
L 18.40625 54.6875 
L 18.40625 0 
L 9.421875 0 
z
M 9.421875 75.984375 
L 18.40625 75.984375 
L 18.40625 64.59375 
L 9.421875 64.59375 
z
" id="DejaVuSans-105"/>
       <path d="M 52 44.1875 
Q 55.375 50.25 60.0625 53.125 
Q 64.75 56 71.09375 56 
Q 79.640625 56 84.28125 50.015625 
Q 88.921875 44.046875 88.921875 33.015625 
L 88.921875 0 
L 79.890625 0 
L 79.890625 32.71875 
Q 79.890625 40.578125 77.09375 44.375 
Q 74.3125 48.1875 68.609375 48.1875 
Q 61.625 48.1875 57.5625 43.546875 
Q 53.515625 38.921875 53.515625 30.90625 
L 53.515625 0 
L 44.484375 0 
L 44.484375 32.71875 
Q 44.484375 40.625 41.703125 44.40625 
Q 38.921875 48.1875 33.109375 48.1875 
Q 26.21875 48.1875 22.15625 43.53125 
Q 18.109375 38.875 18.109375 30.90625 
L 18.109375 0 
L 9.078125 0 
L 9.078125 54.6875 
L 18.109375 54.6875 
L 18.109375 46.1875 
Q 21.1875 51.21875 25.484375 53.609375 
Q 29.78125 56 35.6875 56 
Q 41.65625 56 45.828125 52.96875 
Q 50 49.953125 52 44.1875 
z
" id="DejaVuSans-109"/>
       <path d="M 56.203125 29.59375 
L 56.203125 25.203125 
L 14.890625 25.203125 
Q 15.484375 15.921875 20.484375 11.0625 
Q 25.484375 6.203125 34.421875 6.203125 
Q 39.59375 6.203125 44.453125 7.46875 
Q 49.3125 8.734375 54.109375 11.28125 
L 54.109375 2.78125 
Q 49.265625 0.734375 44.1875 -0.34375 
Q 39.109375 -1.421875 33.890625 -1.421875 
Q 20.796875 -1.421875 13.15625 6.1875 
Q 5.515625 13.8125 5.515625 26.8125 
Q 5.515625 40.234375 12.765625 48.109375 
Q 20.015625 56 32.328125 56 
Q 43.359375 56 49.78125 48.890625 
Q 56.203125 41.796875 56.203125 29.59375 
z
M 47.21875 32.234375 
Q 47.125 39.59375 43.09375 43.984375 
Q 39.0625 48.390625 32.421875 48.390625 
Q 24.90625 48.390625 20.390625 44.140625 
Q 15.875 39.890625 15.1875 32.171875 
z
" id="DejaVuSans-101"/>
       <path id="DejaVuSans-32"/>
       <path d="M 9.8125 72.90625 
L 19.671875 72.90625 
L 19.671875 0 
L 9.8125 0 
z
" id="DejaVuSans-73"/>
       <path d="M 54.890625 33.015625 
L 54.890625 0 
L 45.90625 0 
L 45.90625 32.71875 
Q 45.90625 40.484375 42.875 44.328125 
Q 39.84375 48.1875 33.796875 48.1875 
Q 26.515625 48.1875 22.3125 43.546875 
Q 18.109375 38.921875 18.109375 30.90625 
L 18.109375 0 
L 9.078125 0 
L 9.078125 54.6875 
L 18.109375 54.6875 
L 18.109375 46.1875 
Q 21.34375 51.125 25.703125 53.5625 
Q 30.078125 56 35.796875 56 
Q 45.21875 56 50.046875 50.171875 
Q 54.890625 44.34375 54.890625 33.015625 
z
" id="DejaVuSans-110"/>
       <path d="M 18.3125 70.21875 
L 18.3125 54.6875 
L 36.8125 54.6875 
L 36.8125 47.703125 
L 18.3125 47.703125 
L 18.3125 18.015625 
Q 18.3125 11.328125 20.140625 9.421875 
Q 21.96875 7.515625 27.59375 7.515625 
L 36.8125 7.515625 
L 36.8125 0 
L 27.59375 0 
Q 17.1875 0 13.234375 3.875 
Q 9.28125 7.765625 9.28125 18.015625 
L 9.28125 47.703125 
L 2.6875 47.703125 
L 2.6875 54.6875 
L 9.28125 54.6875 
L 9.28125 70.21875 
z
" id="DejaVuSans-116"/>
       <path d="M 41.109375 46.296875 
Q 39.59375 47.171875 37.8125 47.578125 
Q 36.03125 48 33.890625 48 
Q 26.265625 48 22.1875 43.046875 
Q 18.109375 38.09375 18.109375 28.8125 
L 18.109375 0 
L 9.078125 0 
L 9.078125 54.6875 
L 18.109375 54.6875 
L 18.109375 46.1875 
Q 20.953125 51.171875 25.484375 53.578125 
Q 30.03125 56 36.53125 56 
Q 37.453125 56 38.578125 55.875 
Q 39.703125 55.765625 41.0625 55.515625 
z
" id="DejaVuSans-114"/>
       <path d="M 2.984375 54.6875 
L 12.5 54.6875 
L 29.59375 8.796875 
L 46.6875 54.6875 
L 56.203125 54.6875 
L 35.6875 0 
L 23.484375 0 
z
" id="DejaVuSans-118"/>
       <path d="M 34.28125 27.484375 
Q 23.390625 27.484375 19.1875 25 
Q 14.984375 22.515625 14.984375 16.5 
Q 14.984375 11.71875 18.140625 8.90625 
Q 21.296875 6.109375 26.703125 6.109375 
Q 34.1875 6.109375 38.703125 11.40625 
Q 43.21875 16.703125 43.21875 25.484375 
L 43.21875 27.484375 
z
M 52.203125 31.203125 
L 52.203125 0 
L 43.21875 0 
L 43.21875 8.296875 
Q 40.140625 3.328125 35.546875 0.953125 
Q 30.953125 -1.421875 24.3125 -1.421875 
Q 15.921875 -1.421875 10.953125 3.296875 
Q 6 8.015625 6 15.921875 
Q 6 25.140625 12.171875 29.828125 
Q 18.359375 34.515625 30.609375 34.515625 
L 43.21875 34.515625 
L 43.21875 35.40625 
Q 43.21875 41.609375 39.140625 45 
Q 35.0625 48.390625 27.6875 48.390625 
Q 23 48.390625 18.546875 47.265625 
Q 14.109375 46.140625 10.015625 43.890625 
L 10.015625 52.203125 
Q 14.9375 54.109375 19.578125 55.046875 
Q 24.21875 56 28.609375 56 
Q 40.484375 56 46.34375 49.84375 
Q 52.203125 43.703125 52.203125 31.203125 
z
" id="DejaVuSans-97"/>
       <path d="M 9.421875 75.984375 
L 18.40625 75.984375 
L 18.40625 0 
L 9.421875 0 
z
" id="DejaVuSans-108"/>
      </defs>
      <use xlink:href="#DejaVuSans-84"/>
      <use x="57.958984" xlink:href="#DejaVuSans-105"/>
      <use x="85.742188" xlink:href="#DejaVuSans-109"/>
      <use x="183.154297" xlink:href="#DejaVuSans-101"/>
      <use x="244.677734" xlink:href="#DejaVuSans-32"/>
      <use x="276.464844" xlink:href="#DejaVuSans-73"/>
      <use x="305.957031" xlink:href="#DejaVuSans-110"/>
      <use x="369.335938" xlink:href="#DejaVuSans-116"/>
      <use x="408.544922" xlink:href="#DejaVuSans-101"/>
      <use x="470.068359" xlink:href="#DejaVuSans-114"/>
      <use x="511.181641" xlink:href="#DejaVuSans-118"/>
      <use x="570.361328" xlink:href="#DejaVuSans-97"/>
      <use x="631.640625" xlink:href="#DejaVuSans-108"/>
     </g>
    </g>
   </g>
   <g id="matplotlib.axis_2">
    <g id="ytick_1">
     <g id="line2d_6">
      <defs>
       <path d="M 0 0 
L -3.5 0 
" id="m8151097eef" style="stroke:#000000;stroke-width:0.8;"/>
      </defs>
      <g>
       <use style="stroke:#000000;stroke-width:0.8;" x="180" xlink:href="#m8151097eef" y="332.247273"/>
      </g>
     </g>
     <g id="text_7">
      <!-- 0 -->
      <g transform="translate(166.6375 336.046491)scale(0.1 -0.1)">
       <use xlink:href="#DejaVuSans-48"/>
      </g>
     </g>
    </g>
    <g id="ytick_2">
     <g id="line2d_7">
      <g>
       <use style="stroke:#000000;stroke-width:0.8;" x="180" xlink:href="#m8151097eef" y="285.512727"/>
      </g>
     </g>
     <g id="text_8">
      <!-- 50 -->
      <g transform="translate(160.275 289.311946)scale(0.1 -0.1)">
       <use xlink:href="#DejaVuSans-53"/>
       <use x="63.623047" xlink:href="#DejaVuSans-48"/>
      </g>
     </g>
    </g>
    <g id="ytick_3">
     <g id="line2d_8">
      <g>
       <use style="stroke:#000000;stroke-width:0.8;" x="180" xlink:href="#m8151097eef" y="238.778182"/>
      </g>
     </g>
     <g id="text_9">
      <!-- 100 -->
      <g transform="translate(153.9125 242.577401)scale(0.1 -0.1)">
       <use xlink:href="#DejaVuSans-49"/>
       <use x="63.623047" xlink:href="#DejaVuSans-48"/>
       <use x="127.246094" xlink:href="#DejaVuSans-48"/>
      </g>
     </g>
    </g>
    <g id="ytick_4">
     <g id="line2d_9">
      <g>
       <use style="stroke:#000000;stroke-width:0.8;" x="180" xlink:href="#m8151097eef" y="192.043636"/>
      </g>
     </g>
     <g id="text_10">
      <!-- 150 -->
      <g transform="translate(153.9125 195.842855)scale(0.1 -0.1)">
       <use xlink:href="#DejaVuSans-49"/>
       <use x="63.623047" xlink:href="#DejaVuSans-53"/>
       <use x="127.246094" xlink:href="#DejaVuSans-48"/>
      </g>
     </g>
    </g>
    <g id="ytick_5">
     <g id="line2d_10">
      <g>
       <use style="stroke:#000000;stroke-width:0.8;" x="180" xlink:href="#m8151097eef" y="145.309091"/>
      </g>
     </g>
     <g id="text_11">
      <!-- 200 -->
      <g transform="translate(153.9125 149.10831)scale(0.1 -0.1)">
       <use xlink:href="#DejaVuSans-50"/>
       <use x="63.623047" xlink:href="#DejaVuSans-48"/>
       <use x="127.246094" xlink:href="#DejaVuSans-48"/>
      </g>
     </g>
    </g>
    <g id="ytick_6">
     <g id="line2d_11">
      <g>
       <use style="stroke:#000000;stroke-width:0.8;" x="180" xlink:href="#m8151097eef" y="98.574545"/>
      </g>
     </g>
     <g id="text_12">
      <!-- 250 -->
      <g transform="translate(153.9125 102.373764)scale(0.1 -0.1)">
       <use xlink:href="#DejaVuSans-50"/>
       <use x="63.623047" xlink:href="#DejaVuSans-53"/>
       <use x="127.246094" xlink:href="#DejaVuSans-48"/>
      </g>
     </g>
    </g>
    <g id="ytick_7">
     <g id="line2d_12">
      <g>
       <use style="stroke:#000000;stroke-width:0.8;" x="180" xlink:href="#m8151097eef" y="51.84"/>
      </g>
     </g>
     <g id="text_13">
      <!-- 300 -->
      <g transform="translate(153.9125 55.639219)scale(0.1 -0.1)">
       <defs>
        <path d="M 40.578125 39.3125 
Q 47.65625 37.796875 51.625 33 
Q 55.609375 28.21875 55.609375 21.1875 
Q 55.609375 10.40625 48.1875 4.484375 
Q 40.765625 -1.421875 27.09375 -1.421875 
Q 22.515625 -1.421875 17.65625 -0.515625 
Q 12.796875 0.390625 7.625 2.203125 
L 7.625 11.71875 
Q 11.71875 9.328125 16.59375 8.109375 
Q 21.484375 6.890625 26.8125 6.890625 
Q 36.078125 6.890625 40.9375 10.546875 
Q 45.796875 14.203125 45.796875 21.1875 
Q 45.796875 27.640625 41.28125 31.265625 
Q 36.765625 34.90625 28.71875 34.90625 
L 20.21875 34.90625 
L 20.21875 43.015625 
L 29.109375 43.015625 
Q 36.375 43.015625 40.234375 45.921875 
Q 44.09375 48.828125 44.09375 54.296875 
Q 44.09375 59.90625 40.109375 62.90625 
Q 36.140625 65.921875 28.71875 65.921875 
Q 24.65625 65.921875 20.015625 65.03125 
Q 15.375 64.15625 9.8125 62.3125 
L 9.8125 71.09375 
Q 15.4375 72.65625 20.34375 73.4375 
Q 25.25 74.21875 29.59375 74.21875 
Q 40.828125 74.21875 47.359375 69.109375 
Q 53.90625 64.015625 53.90625 55.328125 
Q 53.90625 49.265625 50.4375 45.09375 
Q 46.96875 40.921875 40.578125 39.3125 
z
" id="DejaVuSans-51"/>
       </defs>
       <use xlink:href="#DejaVuSans-51"/>
       <use x="63.623047" xlink:href="#DejaVuSans-48"/>
       <use x="127.246094" xlink:href="#DejaVuSans-48"/>
      </g>
     </g>
    </g>
    <g id="text_14">
     <!-- Average number of steps taken -->
     <g transform="translate(147.832812 277.346563)rotate(-90)scale(0.1 -0.1)">
      <defs>
       <path d="M 34.1875 63.1875 
L 20.796875 26.90625 
L 47.609375 26.90625 
z
M 28.609375 72.90625 
L 39.796875 72.90625 
L 67.578125 0 
L 57.328125 0 
L 50.6875 18.703125 
L 17.828125 18.703125 
L 11.1875 0 
L 0.78125 0 
z
" id="DejaVuSans-65"/>
       <path d="M 45.40625 27.984375 
Q 45.40625 37.75 41.375 43.109375 
Q 37.359375 48.484375 30.078125 48.484375 
Q 22.859375 48.484375 18.828125 43.109375 
Q 14.796875 37.75 14.796875 27.984375 
Q 14.796875 18.265625 18.828125 12.890625 
Q 22.859375 7.515625 30.078125 7.515625 
Q 37.359375 7.515625 41.375 12.890625 
Q 45.40625 18.265625 45.40625 27.984375 
z
M 54.390625 6.78125 
Q 54.390625 -7.171875 48.1875 -13.984375 
Q 42 -20.796875 29.203125 -20.796875 
Q 24.46875 -20.796875 20.265625 -20.09375 
Q 16.0625 -19.390625 12.109375 -17.921875 
L 12.109375 -9.1875 
Q 16.0625 -11.328125 19.921875 -12.34375 
Q 23.78125 -13.375 27.78125 -13.375 
Q 36.625 -13.375 41.015625 -8.765625 
Q 45.40625 -4.15625 45.40625 5.171875 
L 45.40625 9.625 
Q 42.625 4.78125 38.28125 2.390625 
Q 33.9375 0 27.875 0 
Q 17.828125 0 11.671875 7.65625 
Q 5.515625 15.328125 5.515625 27.984375 
Q 5.515625 40.671875 11.671875 48.328125 
Q 17.828125 56 27.875 56 
Q 33.9375 56 38.28125 53.609375 
Q 42.625 51.21875 45.40625 46.390625 
L 45.40625 54.6875 
L 54.390625 54.6875 
z
" id="DejaVuSans-103"/>
       <path d="M 8.5 21.578125 
L 8.5 54.6875 
L 17.484375 54.6875 
L 17.484375 21.921875 
Q 17.484375 14.15625 20.5 10.265625 
Q 23.53125 6.390625 29.59375 6.390625 
Q 36.859375 6.390625 41.078125 11.03125 
Q 45.3125 15.671875 45.3125 23.6875 
L 45.3125 54.6875 
L 54.296875 54.6875 
L 54.296875 0 
L 45.3125 0 
L 45.3125 8.40625 
Q 42.046875 3.421875 37.71875 1 
Q 33.40625 -1.421875 27.6875 -1.421875 
Q 18.265625 -1.421875 13.375 4.4375 
Q 8.5 10.296875 8.5 21.578125 
z
M 31.109375 56 
z
" id="DejaVuSans-117"/>
       <path d="M 48.6875 27.296875 
Q 48.6875 37.203125 44.609375 42.84375 
Q 40.53125 48.484375 33.40625 48.484375 
Q 26.265625 48.484375 22.1875 42.84375 
Q 18.109375 37.203125 18.109375 27.296875 
Q 18.109375 17.390625 22.1875 11.75 
Q 26.265625 6.109375 33.40625 6.109375 
Q 40.53125 6.109375 44.609375 11.75 
Q 48.6875 17.390625 48.6875 27.296875 
z
M 18.109375 46.390625 
Q 20.953125 51.265625 25.265625 53.625 
Q 29.59375 56 35.59375 56 
Q 45.5625 56 51.78125 48.09375 
Q 58.015625 40.1875 58.015625 27.296875 
Q 58.015625 14.40625 51.78125 6.484375 
Q 45.5625 -1.421875 35.59375 -1.421875 
Q 29.59375 -1.421875 25.265625 0.953125 
Q 20.953125 3.328125 18.109375 8.203125 
L 18.109375 0 
L 9.078125 0 
L 9.078125 75.984375 
L 18.109375 75.984375 
z
" id="DejaVuSans-98"/>
       <path d="M 30.609375 48.390625 
Q 23.390625 48.390625 19.1875 42.75 
Q 14.984375 37.109375 14.984375 27.296875 
Q 14.984375 17.484375 19.15625 11.84375 
Q 23.34375 6.203125 30.609375 6.203125 
Q 37.796875 6.203125 41.984375 11.859375 
Q 46.1875 17.53125 46.1875 27.296875 
Q 46.1875 37.015625 41.984375 42.703125 
Q 37.796875 48.390625 30.609375 48.390625 
z
M 30.609375 56 
Q 42.328125 56 49.015625 48.375 
Q 55.71875 40.765625 55.71875 27.296875 
Q 55.71875 13.875 49.015625 6.21875 
Q 42.328125 -1.421875 30.609375 -1.421875 
Q 18.84375 -1.421875 12.171875 6.21875 
Q 5.515625 13.875 5.515625 27.296875 
Q 5.515625 40.765625 12.171875 48.375 
Q 18.84375 56 30.609375 56 
z
" id="DejaVuSans-111"/>
       <path d="M 37.109375 75.984375 
L 37.109375 68.5 
L 28.515625 68.5 
Q 23.6875 68.5 21.796875 66.546875 
Q 19.921875 64.59375 19.921875 59.515625 
L 19.921875 54.6875 
L 34.71875 54.6875 
L 34.71875 47.703125 
L 19.921875 47.703125 
L 19.921875 0 
L 10.890625 0 
L 10.890625 47.703125 
L 2.296875 47.703125 
L 2.296875 54.6875 
L 10.890625 54.6875 
L 10.890625 58.5 
Q 10.890625 67.625 15.140625 71.796875 
Q 19.390625 75.984375 28.609375 75.984375 
z
" id="DejaVuSans-102"/>
       <path d="M 44.28125 53.078125 
L 44.28125 44.578125 
Q 40.484375 46.53125 36.375 47.5 
Q 32.28125 48.484375 27.875 48.484375 
Q 21.1875 48.484375 17.84375 46.4375 
Q 14.5 44.390625 14.5 40.28125 
Q 14.5 37.15625 16.890625 35.375 
Q 19.28125 33.59375 26.515625 31.984375 
L 29.59375 31.296875 
Q 39.15625 29.25 43.1875 25.515625 
Q 47.21875 21.78125 47.21875 15.09375 
Q 47.21875 7.46875 41.1875 3.015625 
Q 35.15625 -1.421875 24.609375 -1.421875 
Q 20.21875 -1.421875 15.453125 -0.5625 
Q 10.6875 0.296875 5.421875 2 
L 5.421875 11.28125 
Q 10.40625 8.6875 15.234375 7.390625 
Q 20.0625 6.109375 24.8125 6.109375 
Q 31.15625 6.109375 34.5625 8.28125 
Q 37.984375 10.453125 37.984375 14.40625 
Q 37.984375 18.0625 35.515625 20.015625 
Q 33.0625 21.96875 24.703125 23.78125 
L 21.578125 24.515625 
Q 13.234375 26.265625 9.515625 29.90625 
Q 5.8125 33.546875 5.8125 39.890625 
Q 5.8125 47.609375 11.28125 51.796875 
Q 16.75 56 26.8125 56 
Q 31.78125 56 36.171875 55.265625 
Q 40.578125 54.546875 44.28125 53.078125 
z
" id="DejaVuSans-115"/>
       <path d="M 18.109375 8.203125 
L 18.109375 -20.796875 
L 9.078125 -20.796875 
L 9.078125 54.6875 
L 18.109375 54.6875 
L 18.109375 46.390625 
Q 20.953125 51.265625 25.265625 53.625 
Q 29.59375 56 35.59375 56 
Q 45.5625 56 51.78125 48.09375 
Q 58.015625 40.1875 58.015625 27.296875 
Q 58.015625 14.40625 51.78125 6.484375 
Q 45.5625 -1.421875 35.59375 -1.421875 
Q 29.59375 -1.421875 25.265625 0.953125 
Q 20.953125 3.328125 18.109375 8.203125 
z
M 48.6875 27.296875 
Q 48.6875 37.203125 44.609375 42.84375 
Q 40.53125 48.484375 33.40625 48.484375 
Q 26.265625 48.484375 22.1875 42.84375 
Q 18.109375 37.203125 18.109375 27.296875 
Q 18.109375 17.390625 22.1875 11.75 
Q 26.265625 6.109375 33.40625 6.109375 
Q 40.53125 6.109375 44.609375 11.75 
Q 48.6875 17.390625 48.6875 27.296875 
z
" id="DejaVuSans-112"/>
       <path d="M 9.078125 75.984375 
L 18.109375 75.984375 
L 18.109375 31.109375 
L 44.921875 54.6875 
L 56.390625 54.6875 
L 27.390625 29.109375 
L 57.625 0 
L 45.90625 0 
L 18.109375 26.703125 
L 18.109375 0 
L 9.078125 0 
z
" id="DejaVuSans-107"/>
      </defs>
      <use xlink:href="#DejaVuSans-65"/>
      <use x="62.533203" xlink:href="#DejaVuSans-118"/>
      <use x="121.712891" xlink:href="#DejaVuSans-101"/>
      <use x="183.236328" xlink:href="#DejaVuSans-114"/>
      <use x="224.349609" xlink:href="#DejaVuSans-97"/>
      <use x="285.628906" xlink:href="#DejaVuSans-103"/>
      <use x="349.105469" xlink:href="#DejaVuSans-101"/>
      <use x="410.628906" xlink:href="#DejaVuSans-32"/>
      <use x="442.416016" xlink:href="#DejaVuSans-110"/>
      <use x="505.794922" xlink:href="#DejaVuSans-117"/>
      <use x="569.173828" xlink:href="#DejaVuSans-109"/>
      <use x="666.585938" xlink:href="#DejaVuSans-98"/>
      <use x="730.0625" xlink:href="#DejaVuSans-101"/>
      <use x="791.585938" xlink:href="#DejaVuSans-114"/>
      <use x="832.699219" xlink:href="#DejaVuSans-32"/>
      <use x="864.486328" xlink:href="#DejaVuSans-111"/>
      <use x="925.667969" xlink:href="#DejaVuSans-102"/>
      <use x="960.873047" xlink:href="#DejaVuSans-32"/>
      <use x="992.660156" xlink:href="#DejaVuSans-115"/>
      <use x="1044.759766" xlink:href="#DejaVuSans-116"/>
      <use x="1083.96875" xlink:href="#DejaVuSans-101"/>
      <use x="1145.492188" xlink:href="#DejaVuSans-112"/>
      <use x="1208.96875" xlink:href="#DejaVuSans-115"/>
      <use x="1261.068359" xlink:href="#DejaVuSans-32"/>
      <use x="1292.855469" xlink:href="#DejaVuSans-116"/>
      <use x="1332.064453" xlink:href="#DejaVuSans-97"/>
      <use x="1393.34375" xlink:href="#DejaVuSans-107"/>
      <use x="1447.628906" xlink:href="#DejaVuSans-101"/>
      <use x="1509.152344" xlink:href="#DejaVuSans-110"/>
     </g>
    </g>
   </g>
   <g id="line2d_13">
    <path clip-path="url(#p06f044c49c)" d="M 230.727273 330.39821 
L 232.881297 331.881524 
L 235.035321 332.105037 
L 239.34337 332.165995 
L 241.497394 331.04843 
L 243.651419 331.67833 
L 245.805443 331.312582 
L 247.959467 332.247273 
L 250.113492 330.662362 
L 252.267516 331.922163 
L 254.42154 332.247273 
L 273.807759 331.901843 
L 275.961783 332.247273 
L 280.269832 331.881524 
L 282.423856 332.247273 
L 284.577881 331.04843 
L 286.731905 330.438849 
L 288.885929 332.247273 
L 291.039954 332.064398 
L 295.348002 331.962802 
L 297.502027 332.247273 
L 319.04227 332.247273 
L 321.196294 331.109388 
L 323.350318 332.247273 
L 325.504343 332.247273 
L 327.658367 332.105037 
L 329.812391 332.247273 
L 331.966416 332.00344 
L 334.12044 332.247273 
L 336.274464 332.247273 
L 338.428489 330.581085 
L 340.582513 331.231304 
L 359.968732 332.247273 
L 366.430805 332.247273 
L 368.584829 332.02376 
L 370.738854 331.576734 
L 372.892878 330.499807 
L 375.046902 331.617372 
L 377.200926 331.718969 
L 379.354951 332.165995 
L 383.662999 332.247273 
L 403.049218 332.145676 
L 405.203243 331.231304 
L 407.357267 329.483839 
L 409.511291 332.247273 
L 411.665316 331.881524 
L 413.81934 331.861205 
L 415.973364 327.817651 
L 418.127389 331.536095 
L 420.281413 329.219687 
L 422.435437 331.353221 
L 424.589461 329.808949 
L 426.743486 331.210985 
L 446.129705 332.247273 
L 448.283729 330.560765 
L 450.437753 329.016493 
L 452.591778 330.520126 
L 454.745802 328.671064 
L 456.899826 330.195017 
L 459.053851 329.991823 
L 461.207875 326.923598 
L 463.361899 315.463475 
L 465.515924 313.248664 
L 467.669948 298.415526 
L 469.823972 297.927861 
L 489.210191 304.023671 
L 491.364215 294.046862 
L 493.51824 289.92203 
L 495.672264 281.652047 
L 497.826288 293.213768 
L 499.980313 297.176044 
L 502.134337 294.940914 
L 504.288361 299.512772 
L 506.442386 297.257322 
L 508.59641 297.663709 
L 510.750434 295.001872 
L 512.904459 283.724623 
L 532.290677 287.910413 
L 534.444702 289.190533 
L 536.598726 284.273246 
L 538.75275 282.302267 
L 540.906775 283.196319 
L 543.060799 282.403864 
L 545.214823 273.991646 
L 547.368848 290.308098 
L 549.522872 279.620111 
L 551.676896 262.795674 
L 553.830921 278.482226 
L 555.984945 291.344386 
L 575.371164 280.575121 
L 577.525188 277.242745 
L 579.679213 210.960968 
L 581.833237 196.270065 
L 583.987261 187.471779 
L 586.141285 195.944955 
L 588.29531 176.458681 
L 590.449334 150.856278 
L 592.603358 160.223507 
L 594.757383 167.274327 
L 596.911407 161.625543 
L 599.065431 181.233733 
L 618.45165 185.033455 
L 620.605675 200.659048 
L 622.759699 224.310792 
L 624.913723 225.387719 
L 627.067748 227.785404 
L 629.221772 236.177303 
L 631.375796 266.168689 
L 633.52982 288.702868 
L 635.683845 307.843712 
L 637.837869 297.277641 
L 639.991893 298.903191 
L 642.145918 320.522998 
L 661.532137 302.398122 
L 663.686161 321.254495 
L 665.840185 310.81034 
L 667.99421 297.785625 
L 670.148234 312.070141 
L 672.302258 296.688379 
L 674.456283 298.557761 
L 676.610307 303.617284 
L 678.764331 305.852414 
L 680.918356 303.048342 
L 683.07238 307.193492 
L 685.226404 299.512772 
L 704.612623 303.373451 
L 706.766647 303.190577 
L 708.920672 313.634732 
L 711.074696 308.961277 
L 713.22872 305.324111 
L 715.382745 309.245749 
L 717.536769 299.919159 
L 719.690793 280.168734 
L 721.844818 291.22247 
L 723.998842 286.670931 
L 726.152866 288.784145 
L 728.306891 272.020667 
L 747.693109 267.936474 
L 749.847134 241.744809 
L 752.001158 231.991513 
L 754.155182 243.451636 
L 756.309207 271.492364 
L 758.463231 282.403864 
L 760.617255 285.451769 
L 762.77128 302.398122 
L 764.925304 304.38942 
L 767.079328 294.676762 
L 769.233353 288.418397 
L 771.387377 261.352999 
L 790.773596 289.678198 
L 792.92762 293.599836 
L 795.081644 290.24714 
L 797.235669 289.231172 
L 799.389693 284.191968 
L 801.543717 276.247096 
L 803.697742 287.34147 
L 805.851766 305.181875 
L 808.00579 293.356003 
L 810.159815 280.818953 
L 812.313839 283.907497 
L 814.467863 277.019232 
L 833.854082 275.840708 
L 836.008107 281.164383 
L 838.162131 287.34147 
L 840.316155 282.810251 
L 842.47018 294.818998 
L 844.624204 293.315364 
L 846.778228 289.556281 
L 848.932252 307.396686 
L 851.086277 316.682637 
L 853.240301 307.985948 
L 855.394325 293.051213 
L 857.54835 285.268895 
L 879.088593 302.113651 
L 881.242617 307.538922 
L 883.396642 303.068661 
L 885.550666 304.653572 
L 887.70469 302.337164 
L 889.858715 292.380674 
L 892.012739 273.890049 
L 894.166763 253.123655 
L 896.320787 243.858024 
L 898.474812 228.334027 
L 900.628836 247.617107 
L 920.015055 271.025018 
L 922.169079 267.855197 
L 924.323104 258.345733 
L 926.477128 274.17452 
L 928.631152 282.139712 
L 930.785177 279.579472 
L 932.939201 296.200715 
L 935.093225 297.419877 
L 939.401274 287.727538 
L 941.555298 292.563548 
L 943.709323 296.01784 
L 963.095541 293.234087 
L 965.249566 283.541749 
L 967.40359 291.567899 
L 969.557614 279.538833 
L 971.711639 272.56929 
L 973.865663 270.720228 
L 976.019687 278.746378 
L 978.173712 282.85089 
L 980.327736 271.797154 
L 982.48176 295.509856 
L 984.635785 297.582432 
L 986.789809 294.128139 
L 1006.176028 291.811731 
L 1008.330052 272.122264 
L 1010.484076 253.672278 
L 1012.638101 251.823216 
L 1014.792125 279.071488 
L 1016.946149 266.290606 
L 1019.100174 250.786928 
L 1021.254198 256.49667 
L 1023.408222 246.926248 
L 1025.562247 231.727361 
L 1027.716271 240.505328 
L 1029.870295 246.093154 
L 1049.256514 245.503892 
L 1051.410539 252.087368 
L 1053.564563 273.199191 
L 1055.718587 278.279032 
L 1057.872611 297.358919 
L 1060.026636 311.724711 
L 1062.18066 304.450378 
L 1064.334684 293.843668 
L 1066.488709 299.919159 
L 1068.642733 305.080278 
L 1070.796757 283.50111 
L 1072.950782 297.440196 
L 1092.337001 314.061439 
L 1094.491025 317.657967 
L 1096.645049 314.894533 
L 1098.799074 310.932256 
L 1100.953098 319.364794 
L 1103.107122 319.181919 
L 1105.261146 314.081758 
L 1107.415171 310.566508 
L 1109.569195 315.768266 
L 1111.723219 311.643434 
L 1113.877244 301.50407 
L 1116.031268 312.476528 
L 1135.417487 321.132579 
L 1137.571511 315.707308 
L 1139.725536 308.087545 
L 1141.87956 316.032417 
L 1146.187609 323.97729 
L 1148.341633 320.218207 
L 1150.495657 316.743595 
L 1152.649682 322.900364 
L 1154.803706 326.415614 
L 1156.95773 323.489625 
L 1159.111754 329.422881 
L 1178.497973 330.682681 
L 1180.651998 328.284996 
L 1182.806022 327.065834 
L 1184.960046 323.083238 
L 1187.114071 324.62751 
L 1189.268095 322.880044 
L 1191.422119 321.74216 
L 1193.576144 329.869907 
L 1195.730168 332.247273 
L 1197.884192 332.125357 
L 1200.038217 330.703001 
L 1202.192241 330.967153 
L 1221.57846 328.691383 
L 1223.732484 329.179048 
L 1225.886508 332.247273 
L 1230.194557 331.210985 
L 1232.348581 330.967153 
L 1234.502606 329.4432 
L 1236.65663 327.18775 
L 1238.810654 328.691383 
L 1240.964679 331.556414 
L 1243.118703 332.00344 
L 1245.272727 331.089069 
L 1245.272727 331.089069 
" style="fill:none;stroke:#0000ff;stroke-linecap:square;stroke-width:1.5;"/>
   </g>
   <g id="line2d_14">
    <path clip-path="url(#p06f044c49c)" d="M 230.727273 332.247273 
L 239.34337 332.247273 
L 241.497394 325.303855 
L 243.651419 332.247273 
L 252.267516 332.247273 
L 254.42154 331.312582 
L 273.807759 332.247273 
L 275.961783 327.440291 
L 278.115808 332.247273 
L 284.577881 332.247273 
L 286.731905 331.179055 
L 288.885929 331.045527 
L 291.039954 332.247273 
L 293.193978 330.778473 
L 295.348002 332.247273 
L 319.04227 332.247273 
L 321.196294 331.713164 
L 323.350318 332.247273 
L 383.662999 332.247273 
L 403.049218 324.502691 
L 405.203243 332.247273 
L 418.127389 332.247273 
L 420.281413 327.440291 
L 422.435437 332.247273 
L 424.589461 326.238545 
L 426.743486 331.179055 
L 446.129705 332.247273 
L 450.437753 332.247273 
L 452.591778 327.707345 
L 454.745802 332.247273 
L 456.899826 324.769745 
L 459.053851 332.247273 
L 461.207875 324.369164 
L 463.361899 329.176145 
L 465.515924 327.306764 
L 467.669948 275.364655 
L 469.823972 242.917527 
L 489.210191 294.859636 
L 491.364215 234.638836 
L 493.51824 229.831855 
L 495.672264 215.677964 
L 497.826288 235.172945 
L 499.980313 229.5648 
L 502.134337 208.333964 
L 504.288361 268.955345 
L 506.442386 250.662109 
L 508.59641 246.923345 
L 510.750434 312.618764 
L 512.904459 304.073018 
L 532.290677 313.553455 
L 534.444702 301.135418 
L 536.598726 290.052655 
L 538.75275 274.697018 
L 540.906775 301.268945 
L 543.060799 298.998982 
L 545.214823 321.030982 
L 547.368848 294.192 
L 549.522872 308.212364 
L 551.676896 296.461964 
L 553.830921 276.165818 
L 555.984945 203.660509 
L 575.371164 152.519564 
L 577.525188 211.004509 
L 579.679213 213.274473 
L 581.833237 110.992582 
L 583.987261 72.4032 
L 586.141285 128.2176 
L 588.29531 101.245091 
L 590.449334 65.192727 
L 592.603358 76.141964 
L 594.757383 145.576145 
L 596.911407 155.590691 
L 599.065431 142.638545 
L 618.45165 284.444509 
L 620.605675 319.1616 
L 622.759699 269.355927 
L 624.913723 269.355927 
L 627.067748 284.711564 
L 629.221772 284.444509 
L 631.375796 297.930764 
L 633.52982 298.331345 
L 635.683845 317.158691 
L 637.837869 287.782691 
L 639.991893 303.805964 
L 642.145918 260.276073 
L 661.532137 241.3152 
L 663.686161 213.541527 
L 665.840185 172.949236 
L 667.99421 186.034909 
L 670.148234 189.373091 
L 672.302258 206.464582 
L 674.456283 240.246982 
L 676.610307 255.602618 
L 678.764331 260.142545 
L 680.918356 323.568 
L 683.07238 319.295127 
L 685.226404 321.298036 
L 704.612623 300.0672 
L 706.766647 313.152873 
L 708.920672 303.672436 
L 711.074696 304.4736 
L 713.22872 308.345891 
L 715.382745 296.061382 
L 717.536769 308.078836 
L 719.690793 320.763927 
L 721.844818 304.340073 
L 723.998842 316.090473 
L 726.152866 292.055564 
L 728.306891 309.147055 
L 747.693109 302.871273 
L 749.847134 306.342982 
L 752.001158 319.829236 
L 754.155182 259.207855 
L 756.309207 282.842182 
L 758.463231 304.740655 
L 760.617255 254.267345 
L 762.77128 298.998982 
L 764.925304 327.573818 
L 767.079328 312.084655 
L 769.233353 301.402473 
L 771.387377 321.965673 
L 790.773596 312.351709 
L 792.92762 303.939491 
L 795.081644 302.070109 
L 797.235669 324.903273 
L 799.389693 320.763927 
L 801.543717 300.868364 
L 803.697742 324.769745 
L 805.851766 332.247273 
L 808.00579 305.007709 
L 810.159815 291.2544 
L 812.313839 315.022255 
L 814.467863 264.816 
L 833.854082 308.345891 
L 836.008107 300.200727 
L 838.162131 318.894545 
L 840.316155 312.485236 
L 842.47018 327.173236 
L 844.624204 322.366255 
L 846.778228 316.624582 
L 848.932252 300.868364 
L 851.086277 313.419927 
L 853.240301 307.144145 
L 855.394325 281.106327 
L 857.54835 331.179055 
L 876.934569 328.374982 
L 879.088593 274.964073 
L 881.242617 243.451636 
L 883.396642 249.059782 
L 885.550666 188.304873 
L 887.70469 190.841891 
L 889.858715 253.599709 
L 892.012739 253.466182 
L 894.166763 265.483636 
L 896.320787 214.8768 
L 898.474812 292.456145 
L 900.628836 294.192 
L 920.015055 294.859636 
L 922.169079 301.536 
L 924.323104 290.319709 
L 926.477128 266.818909 
L 928.631152 258.807273 
L 930.785177 255.335564 
L 932.939201 258.673745 
L 935.093225 288.183273 
L 937.24725 277.100509 
L 939.401274 303.138327 
L 941.555298 266.017745 
L 943.709323 261.210764 
L 963.095541 258.673745 
L 965.249566 253.866764 
L 967.40359 240.647564 
L 969.557614 245.321018 
L 971.711639 209.802764 
L 973.865663 177.889745 
L 976.019687 195.915927 
L 978.173712 234.638836 
L 980.327736 198.052364 
L 982.48176 173.7504 
L 984.635785 313.954036 
L 986.789809 317.6928 
L 1006.176028 310.081745 
L 1008.330052 316.758109 
L 1010.484076 319.962764 
L 1012.638101 256.937891 
L 1014.792125 262.278982 
L 1016.946149 286.046836 
L 1019.100174 317.6928 
L 1021.254198 304.607127 
L 1023.408222 288.984436 
L 1025.562247 288.984436 
L 1027.716271 322.366255 
L 1029.870295 292.589673 
L 1049.256514 301.669527 
L 1051.410539 308.212364 
L 1053.564563 309.547636 
L 1055.718587 309.280582 
L 1057.872611 304.4736 
L 1060.026636 320.496873 
L 1062.18066 321.030982 
L 1064.334684 301.402473 
L 1066.488709 330.912 
L 1068.642733 329.977309 
L 1070.796757 329.4432 
L 1072.950782 323.701527 
L 1092.337001 312.885818 
L 1094.491025 293.524364 
L 1096.645049 309.414109 
L 1098.799074 236.374691 
L 1100.953098 227.161309 
L 1103.107122 268.287709 
L 1105.261146 258.406691 
L 1107.415171 323.701527 
L 1109.569195 302.203636 
L 1111.723219 316.758109 
L 1113.877244 305.675345 
L 1116.031268 319.562182 
L 1135.417487 292.456145 
L 1137.571511 319.028073 
L 1139.725536 325.0368 
L 1141.87956 302.604218 
L 1144.033584 324.903273 
L 1146.187609 329.843782 
L 1148.341633 307.544727 
L 1150.495657 318.761018 
L 1152.649682 332.247273 
L 1154.803706 315.422836 
L 1156.95773 332.247273 
L 1193.576144 332.247273 
L 1195.730168 329.977309 
L 1197.884192 332.247273 
L 1200.038217 331.045527 
L 1202.192241 308.078836 
L 1221.57846 332.247273 
L 1225.886508 332.247273 
L 1228.040533 329.576727 
L 1230.194557 332.247273 
L 1232.348581 329.4432 
L 1234.502606 332.247273 
L 1245.272727 332.247273 
L 1245.272727 332.247273 
" style="fill:none;stroke:#ff0000;stroke-linecap:square;stroke-width:1.5;"/>
   </g>
   <g id="patch_3">
    <path d="M 180 345.6 
L 180 51.84 
" style="fill:none;stroke:#000000;stroke-linecap:square;stroke-linejoin:miter;stroke-width:0.8;"/>
   </g>
   <g id="patch_4">
    <path d="M 1296 345.6 
L 1296 51.84 
" style="fill:none;stroke:#000000;stroke-linecap:square;stroke-linejoin:miter;stroke-width:0.8;"/>
   </g>
   <g id="patch_5">
    <path d="M 180 345.6 
L 1296 345.6 
" style="fill:none;stroke:#000000;stroke-linecap:square;stroke-linejoin:miter;stroke-width:0.8;"/>
   </g>
   <g id="patch_6">
    <path d="M 180 51.84 
L 1296 51.84 
" style="fill:none;stroke:#000000;stroke-linecap:square;stroke-linejoin:miter;stroke-width:0.8;"/>
   </g>
   <g id="text_15">
    <!-- All week days and weekend days -->
    <g transform="translate(638.7975 45.84)scale(0.12 -0.12)">
     <defs>
      <path d="M 4.203125 54.6875 
L 13.1875 54.6875 
L 24.421875 12.015625 
L 35.59375 54.6875 
L 46.1875 54.6875 
L 57.421875 12.015625 
L 68.609375 54.6875 
L 77.59375 54.6875 
L 63.28125 0 
L 52.6875 0 
L 40.921875 44.828125 
L 29.109375 0 
L 18.5 0 
z
" id="DejaVuSans-119"/>
      <path d="M 45.40625 46.390625 
L 45.40625 75.984375 
L 54.390625 75.984375 
L 54.390625 0 
L 45.40625 0 
L 45.40625 8.203125 
Q 42.578125 3.328125 38.25 0.953125 
Q 33.9375 -1.421875 27.875 -1.421875 
Q 17.96875 -1.421875 11.734375 6.484375 
Q 5.515625 14.40625 5.515625 27.296875 
Q 5.515625 40.1875 11.734375 48.09375 
Q 17.96875 56 27.875 56 
Q 33.9375 56 38.25 53.625 
Q 42.578125 51.265625 45.40625 46.390625 
z
M 14.796875 27.296875 
Q 14.796875 17.390625 18.875 11.75 
Q 22.953125 6.109375 30.078125 6.109375 
Q 37.203125 6.109375 41.296875 11.75 
Q 45.40625 17.390625 45.40625 27.296875 
Q 45.40625 37.203125 41.296875 42.84375 
Q 37.203125 48.484375 30.078125 48.484375 
Q 22.953125 48.484375 18.875 42.84375 
Q 14.796875 37.203125 14.796875 27.296875 
z
" id="DejaVuSans-100"/>
      <path d="M 32.171875 -5.078125 
Q 28.375 -14.84375 24.75 -17.8125 
Q 21.140625 -20.796875 15.09375 -20.796875 
L 7.90625 -20.796875 
L 7.90625 -13.28125 
L 13.1875 -13.28125 
Q 16.890625 -13.28125 18.9375 -11.515625 
Q 21 -9.765625 23.484375 -3.21875 
L 25.09375 0.875 
L 2.984375 54.6875 
L 12.5 54.6875 
L 29.59375 11.921875 
L 46.6875 54.6875 
L 56.203125 54.6875 
z
" id="DejaVuSans-121"/>
     </defs>
     <use xlink:href="#DejaVuSans-65"/>
     <use x="68.408203" xlink:href="#DejaVuSans-108"/>
     <use x="96.191406" xlink:href="#DejaVuSans-108"/>
     <use x="123.974609" xlink:href="#DejaVuSans-32"/>
     <use x="155.761719" xlink:href="#DejaVuSans-119"/>
     <use x="237.548828" xlink:href="#DejaVuSans-101"/>
     <use x="299.072266" xlink:href="#DejaVuSans-101"/>
     <use x="360.595703" xlink:href="#DejaVuSans-107"/>
     <use x="418.505859" xlink:href="#DejaVuSans-32"/>
     <use x="450.292969" xlink:href="#DejaVuSans-100"/>
     <use x="513.769531" xlink:href="#DejaVuSans-97"/>
     <use x="575.048828" xlink:href="#DejaVuSans-121"/>
     <use x="634.228516" xlink:href="#DejaVuSans-115"/>
     <use x="686.328125" xlink:href="#DejaVuSans-32"/>
     <use x="718.115234" xlink:href="#DejaVuSans-97"/>
     <use x="779.394531" xlink:href="#DejaVuSans-110"/>
     <use x="842.773438" xlink:href="#DejaVuSans-100"/>
     <use x="906.25" xlink:href="#DejaVuSans-32"/>
     <use x="938.037109" xlink:href="#DejaVuSans-119"/>
     <use x="1019.824219" xlink:href="#DejaVuSans-101"/>
     <use x="1081.347656" xlink:href="#DejaVuSans-101"/>
     <use x="1142.871094" xlink:href="#DejaVuSans-107"/>
     <use x="1197.15625" xlink:href="#DejaVuSans-101"/>
     <use x="1258.679688" xlink:href="#DejaVuSans-110"/>
     <use x="1322.058594" xlink:href="#DejaVuSans-100"/>
     <use x="1385.535156" xlink:href="#DejaVuSans-32"/>
     <use x="1417.322266" xlink:href="#DejaVuSans-100"/>
     <use x="1480.798828" xlink:href="#DejaVuSans-97"/>
     <use x="1542.078125" xlink:href="#DejaVuSans-121"/>
     <use x="1601.257812" xlink:href="#DejaVuSans-115"/>
    </g>
   </g>
   <g id="legend_1">
    <g id="patch_7">
     <path d="M 187 89.19625 
L 271.353125 89.19625 
Q 273.353125 89.19625 273.353125 87.19625 
L 273.353125 58.84 
Q 273.353125 56.84 271.353125 56.84 
L 187 56.84 
Q 185 56.84 185 58.84 
L 185 87.19625 
Q 185 89.19625 187 89.19625 
z
" style="fill:#ffffff;opacity:0.8;stroke:#cccccc;stroke-linejoin:miter;"/>
    </g>
    <g id="line2d_15">
     <path d="M 189 64.938437 
L 209 64.938437 
" style="fill:none;stroke:#0000ff;stroke-linecap:square;stroke-width:1.5;"/>
    </g>
    <g id="line2d_16"/>
    <g id="text_16">
     <!-- WeekDays -->
     <g transform="translate(217 68.438437)scale(0.1 -0.1)">
      <defs>
       <path d="M 3.328125 72.90625 
L 13.28125 72.90625 
L 28.609375 11.28125 
L 43.890625 72.90625 
L 54.984375 72.90625 
L 70.3125 11.28125 
L 85.59375 72.90625 
L 95.609375 72.90625 
L 77.296875 0 
L 64.890625 0 
L 49.515625 63.28125 
L 33.984375 0 
L 21.578125 0 
z
" id="DejaVuSans-87"/>
       <path d="M 19.671875 64.796875 
L 19.671875 8.109375 
L 31.59375 8.109375 
Q 46.6875 8.109375 53.6875 14.9375 
Q 60.6875 21.78125 60.6875 36.53125 
Q 60.6875 51.171875 53.6875 57.984375 
Q 46.6875 64.796875 31.59375 64.796875 
z
M 9.8125 72.90625 
L 30.078125 72.90625 
Q 51.265625 72.90625 61.171875 64.09375 
Q 71.09375 55.28125 71.09375 36.53125 
Q 71.09375 17.671875 61.125 8.828125 
Q 51.171875 0 30.078125 0 
L 9.8125 0 
z
" id="DejaVuSans-68"/>
      </defs>
      <use xlink:href="#DejaVuSans-87"/>
      <use x="93.001953" xlink:href="#DejaVuSans-101"/>
      <use x="154.525391" xlink:href="#DejaVuSans-101"/>
      <use x="216.048828" xlink:href="#DejaVuSans-107"/>
      <use x="273.958984" xlink:href="#DejaVuSans-68"/>
      <use x="350.960938" xlink:href="#DejaVuSans-97"/>
      <use x="412.240234" xlink:href="#DejaVuSans-121"/>
      <use x="471.419922" xlink:href="#DejaVuSans-115"/>
     </g>
    </g>
    <g id="line2d_17">
     <path d="M 189 79.616562 
L 209 79.616562 
" style="fill:none;stroke:#ff0000;stroke-linecap:square;stroke-width:1.5;"/>
    </g>
    <g id="line2d_18"/>
    <g id="text_17">
     <!-- WeekEnd -->
     <g transform="translate(217 83.116562)scale(0.1 -0.1)">
      <defs>
       <path d="M 9.8125 72.90625 
L 55.90625 72.90625 
L 55.90625 64.59375 
L 19.671875 64.59375 
L 19.671875 43.015625 
L 54.390625 43.015625 
L 54.390625 34.71875 
L 19.671875 34.71875 
L 19.671875 8.296875 
L 56.78125 8.296875 
L 56.78125 0 
L 9.8125 0 
z
" id="DejaVuSans-69"/>
      </defs>
      <use xlink:href="#DejaVuSans-87"/>
      <use x="93.001953" xlink:href="#DejaVuSans-101"/>
      <use x="154.525391" xlink:href="#DejaVuSans-101"/>
      <use x="216.048828" xlink:href="#DejaVuSans-107"/>
      <use x="273.958984" xlink:href="#DejaVuSans-69"/>
      <use x="337.142578" xlink:href="#DejaVuSans-110"/>
      <use x="400.521484" xlink:href="#DejaVuSans-100"/>
     </g>
    </g>
   </g>
  </g>
 </g>
 <defs>
  <clipPath id="p06f044c49c">
   <rect height="293.76" width="1116" x="180" y="51.84"/>
  </clipPath>
 </defs>
</svg>
